<?xml version="1.0" encoding="UTF-8"?>
<svg version="1.1" xmlns="http://www.w3.org/2000/svg" width="1536" height="1024">
<path d="M0 0 C506.88 0 1013.76 0 1536 0 C1536 337.92 1536 675.84 1536 1024 C1029.12 1024 522.24 1024 0 1024 C0 686.08 0 348.16 0 0 Z " fill="#FDFDFD" transform="translate(0,0)"/>
<path d="M0 0 C1.25961044 -0.00511093 2.51922089 -0.01022186 3.81700134 -0.01548767 C7.25320404 -0.02880934 10.68929629 -0.02946378 14.12551975 -0.02692437 C17.00529437 -0.02584952 19.8850471 -0.03075135 22.764817 -0.03552979 C29.56669825 -0.0466024 36.36852427 -0.04707575 43.17041016 -0.04101562 C50.15954712 -0.03498379 57.14848236 -0.04727182 64.13758492 -0.06858569 C70.16167607 -0.08627313 76.18570344 -0.09219167 82.20981956 -0.08894795 C85.79724604 -0.08714553 89.38452877 -0.08966565 92.97193146 -0.10366249 C96.980116 -0.11871728 100.98789751 -0.10920872 104.99609375 -0.09765625 C106.16532883 -0.10529999 107.3345639 -0.11294373 108.53923035 -0.12081909 C121.97629489 -0.035692 135.48197978 3.13847044 145.60058594 12.4934082 C156.61798879 24.34231316 159.39514918 37.17496593 159.43383789 52.87280273 C159.44040909 54.03458542 159.44698029 55.1963681 159.45375061 56.39335632 C159.47343197 60.23139517 159.48513506 64.06939496 159.49511719 67.9074707 C159.49919271 69.2219305 159.50326824 70.5363903 159.50746727 71.89068222 C159.52649668 78.13239409 159.54073121 84.37409432 159.54907924 90.61582959 C159.55883715 97.79079322 159.58512794 104.96544718 159.62558013 112.14030182 C159.65586798 117.70574725 159.67056011 123.27110454 159.67386025 128.8366307 C159.67619671 132.15144007 159.68698775 135.46584474 159.71032143 138.78058243 C159.7347921 142.4873513 159.73373273 146.19332077 159.72680664 149.90014648 C159.7396167 150.97901627 159.75242676 152.05788605 159.765625 153.16944885 C159.68782584 164.66414717 156.23637489 174.18380872 149.25683594 183.2746582 C148.33257812 184.52762695 148.33257812 184.52762695 147.38964844 185.8059082 C145.14620096 188.4027192 143.03070445 190.01585743 140.13183594 191.8371582 C139.26300781 192.39532227 138.39417969 192.95348633 137.49902344 193.52856445 C128.24261523 198.51364213 120.77106735 199.85902187 110.24511719 199.79223633 C108.86086291 199.79766805 107.47661443 199.80479656 106.09237671 199.81347656 C102.36086507 199.83158854 98.62979974 199.82469322 94.8982811 199.81196022 C90.97652819 199.80176912 87.0548112 199.81124274 83.13305664 199.81750488 C76.54957279 199.82476363 69.96626896 199.81524039 63.3828125 199.79614258 C55.79254255 199.77437714 48.20270252 199.78142977 40.61244297 199.8034482 C34.07282385 199.82165299 27.53333347 199.82413582 20.99369717 199.81369352 C17.09782817 199.80748637 13.20216065 199.80654571 9.30630493 199.81983948 C5.6419952 199.83147179 1.97823486 199.82323951 -1.68601608 199.80026245 C-3.65685032 199.79252903 -5.62773152 199.80426797 -7.59854126 199.81677246 C-20.73695347 199.69266942 -30.73238765 194.89086787 -40.43066406 186.1496582 C-49.87541379 176.26561779 -52.04203777 163.96866966 -52.04956055 150.92041016 C-52.05788406 149.69020645 -52.06620758 148.46000275 -52.07478333 147.19252014 C-52.09469495 143.8326621 -52.10551406 140.47305136 -52.11060977 137.1131556 C-52.11426595 135.00825392 -52.12051256 132.90337561 -52.12761116 130.79848289 C-52.15207398 123.43839865 -52.1651501 116.07838453 -52.16870117 108.71826172 C-52.17233114 101.88523852 -52.20219553 95.05266592 -52.24410576 88.21978027 C-52.27894005 82.33158681 -52.29425189 76.44354172 -52.29494721 70.55524606 C-52.29573575 67.0481551 -52.30427667 63.54152355 -52.33294487 60.03454018 C-52.36427295 56.11481386 -52.35500328 52.19572132 -52.3425293 48.27587891 C-52.35736359 47.133125 -52.37219788 45.99037109 -52.38748169 44.81298828 C-52.27447623 32.27369513 -47.40071348 21.89628559 -38.57128906 13.11450195 C-29.25740551 4.50384786 -29.25740551 4.50384786 -22.86816406 4.0871582 C-22.16691406 4.1490332 -21.46566406 4.2109082 -20.74316406 4.2746582 C-20.74316406 3.6146582 -20.74316406 2.9546582 -20.74316406 2.2746582 C-13.76734788 0.13451257 -7.26574542 -0.01528904 0 0 Z " fill="#2F55D9" transform="translate(334.7431640625,396.725341796875)"/>
<path d="M0 0 C0.74378906 -0.00386719 1.48757813 -0.00773437 2.25390625 -0.01171875 C12.41289567 0.40517282 22.88286812 7.90168042 29.8828125 14.68359375 C38.40680709 24.00966163 42.75297944 34.23379516 42.5 46.875 C42.48936523 47.83736572 42.47873047 48.79973145 42.46777344 49.79125977 C42.22703051 58.81683399 40.34007383 66.23490291 35.6875 74 C33.81212601 76.7023801 33.81212601 76.7023801 34.109375 78.890625 C35.35455712 81.83974056 37.26004971 83.54483635 39.5625 85.75 C40.38878906 86.54921875 41.21507812 87.3484375 42.06640625 88.171875 C42.70449219 88.77515625 43.34257812 89.3784375 44 90 C42.23001953 93.82442209 40.99503649 95.33540146 37 97 C32.73783904 97.71866153 28.76681936 98.13954621 25.01953125 95.72265625 C23.375 94.125 23.375 94.125 21 91 C21 90.34 21 89.68 21 89 C20.32195312 89.33773437 19.64390625 89.67546875 18.9453125 90.0234375 C6.65981249 95.91094858 -6.82946782 98.46339754 -20.3125 94.875 C-33.95137914 89.99752004 -43.22867262 80.89875501 -49.625 68.046875 C-54.63345768 56.94858809 -54.4861483 43.51544462 -51.1015625 31.875 C-46.12266925 18.88044172 -38.47857047 10.01954902 -25.86328125 4.25390625 C-24.44595703 3.63322266 -24.44595703 3.63322266 -23 3 C-22.33355469 2.65839844 -21.66710937 2.31679688 -20.98046875 1.96484375 C-14.39382066 -1.12040535 -7.09519842 -0.29007994 0 0 Z " fill="#F9FAFD" transform="translate(409,448)"/>
<path d="M0 0 C10.73705182 6.66808561 18.26556715 16.20661042 21.46484375 28.578125 C21.76962142 31.9570861 21.79849875 35.31197913 21.77734375 38.703125 C21.7717041 39.63874268 21.76606445 40.57436035 21.76025391 41.53833008 C21.55578034 53.21862931 19.08983545 61.88719864 12.46484375 71.578125 C13.25890625 72.34898437 14.05296875 73.11984375 14.87109375 73.9140625 C15.90260416 74.92681817 16.93384002 75.93985352 17.96484375 76.953125 C18.48949219 77.46101562 19.01414062 77.96890625 19.5546875 78.4921875 C20.89637556 79.81645104 22.1848019 81.19418365 23.46484375 82.578125 C23.46484375 83.238125 23.46484375 83.898125 23.46484375 84.578125 C19.84664414 87.68173622 16.01924322 90.1657333 11.40234375 91.390625 C6.8238693 90.12423845 3.5968991 87.09175055 0.46484375 83.578125 C0.46484375 82.918125 0.46484375 82.258125 0.46484375 81.578125 C-0.73011719 82.08472656 -0.73011719 82.08472656 -1.94921875 82.6015625 C-3.00882813 83.04757812 -4.0684375 83.49359375 -5.16015625 83.953125 C-6.20429687 84.39398437 -7.2484375 84.83484375 -8.32421875 85.2890625 C-9.38382813 85.71445312 -10.4434375 86.13984375 -11.53515625 86.578125 C-12.4684375 86.95453125 -13.40171875 87.3309375 -14.36328125 87.71875 C-25.13421543 90.6369834 -38.64415701 89.65921552 -48.53515625 84.578125 C-60.45232819 77.38645382 -67.82096379 68.7240778 -72.53515625 55.578125 C-75.09755125 41.91716373 -74.64876798 27.01397511 -67.47265625 14.828125 C-61.31551313 5.95459522 -53.55079303 -0.39946604 -43.53515625 -4.421875 C-42.66503906 -4.78539062 -41.79492188 -5.14890625 -40.8984375 -5.5234375 C-26.92827122 -9.25530538 -12.39548182 -6.95216546 0 0 Z " fill="#3778EE" transform="translate(1202.53515625,454.421875)"/>
<path d="M0 0 C5.94 0 11.88 0 18 0 C18.556875 2.31 19.11375 4.62 19.6875 7 C21.30115459 13.57245807 23.20230027 20.01179957 25.27294922 26.453125 C26.80826516 31.26772141 28.02649563 36.04397773 29 41 C30.89087934 37.56083041 31.97813277 34.04903251 33.09375 30.29296875 C33.28594116 29.64934891 33.47813232 29.00572906 33.67614746 28.34260559 C34.2875575 26.29191458 34.89380496 24.23973788 35.5 22.1875 C35.90722237 20.81956326 36.3147713 19.45172369 36.72265625 18.08398438 C38.51455576 12.06488478 40.27465603 6.03870389 42 0 C47.94 0 53.88 0 60 0 C60.37511719 1.48628906 60.75023437 2.97257812 61.13671875 4.50390625 C63.76465448 14.80254997 66.44785854 24.96036994 70.1171875 34.94140625 C71.03267531 38.11320693 71.16784014 40.71724441 71 44 C71.66 44 72.32 44 73 44 C73.17789062 42.03546875 73.17789062 42.03546875 73.359375 40.03125 C73.88185339 35.35452036 74.92584301 31.00649523 76.25 26.5 C76.46744873 25.73896973 76.68489746 24.97793945 76.90893555 24.19384766 C77.59757066 21.79337777 78.29746352 19.39643534 79 17 C79.2386377 16.18112305 79.47727539 15.36224609 79.72314453 14.51855469 C81.1351734 9.6748445 82.56525502 4.8371402 84 0 C89.94 0 95.88 0 102 0 C100.05380038 6.55561977 98.03658347 13.08625233 95.97998047 19.60791016 C94.61882863 23.94879871 93.32532391 28.30460584 92.06933594 32.67700195 C90.30297439 38.82172876 88.41533701 44.75177812 85.91015625 50.64453125 C84.49944416 54.29542993 83.56533161 58.05541096 82.61328125 61.84765625 C82 64 82 64 81 65 C79.65732587 65.08631874 78.31025678 65.10706473 76.96484375 65.09765625 C76.15595703 65.09443359 75.34707031 65.09121094 74.51367188 65.08789062 C73.66353516 65.07951172 72.81339844 65.07113281 71.9375 65.0625 C71.08349609 65.05798828 70.22949219 65.05347656 69.34960938 65.04882812 C67.23304337 65.03700373 65.11651315 65.01906769 63 65 C62.56131592 63.45675049 62.56131592 63.45675049 62.11376953 61.88232422 C61.0230077 58.04648694 59.93046694 54.21115822 58.83740234 50.37597656 C58.36556642 48.71953819 57.89420585 47.06296434 57.42333984 45.40625 C56.74443036 43.01786653 56.06378371 40.62998384 55.3828125 38.2421875 C55.17439728 37.50757294 54.96598206 36.77295837 54.75125122 36.01608276 C53.59667706 31.9746373 52.36239959 27.97776909 51 24 C49.21928754 26.67106869 48.49930622 28.28343317 47.66796875 31.2890625 C47.42900879 32.14089111 47.19004883 32.99271973 46.94384766 33.87036133 C46.69425293 34.77939209 46.4446582 35.68842285 46.1875 36.625 C45.65815307 38.51709532 45.12819545 40.40901989 44.59765625 42.30078125 C44.33227051 43.25162598 44.06688477 44.2024707 43.79345703 45.18212891 C42.60509124 49.4024729 41.36880279 53.60822018 40.125 57.8125 C39.42375 60.184375 38.7225 62.55625 38 65 C32.06 65 26.12 65 20 65 C14.875 49.625 14.875 49.625 14.26342773 47.78808594 C12.77423917 43.3167199 11.27895189 38.84742842 9.78125 34.37890625 C8.97915661 31.9817742 8.17707335 29.58463876 7.375 27.1875 C6.99069824 26.04297363 6.60639648 24.89844727 6.21044922 23.71923828 C4.51040869 18.6338804 2.82546453 13.54395475 1.2265625 8.42578125 C0.98760254 7.66305908 0.74864258 6.90033691 0.50244141 6.11450195 C0 4 0 4 0 0 Z " fill="#1E1F20" transform="translate(987,476)"/>
<path d="M0 0 C8.14280803 5.84432177 12.50443659 12.3104874 14.375 22.3125 C14.375 26.2725 14.375 30.2325 14.375 34.3125 C-1.465 34.3125 -17.305 34.3125 -33.625 34.3125 C-30.62049596 43.82216194 -30.62049596 43.82216194 -23.375 48.5625 C-18.54503781 49.87976242 -14.00942222 50.37043477 -9.3359375 48.296875 C-5.90187874 46.22395225 -3.881503 44.69725449 -1.625 41.3125 C3.3180602 41.80680602 7.12476194 42.68140025 11.375 45.3125 C12.375 48.3125 12.375 48.3125 11.36328125 50.36328125 C6.47363487 56.9625942 1.37476995 61.11421611 -6.625 63.3125 C-16.08685423 64.57483873 -27.30620455 65.23214959 -35.625 59.9140625 C-36.285 59.38554688 -36.945 58.85703125 -37.625 58.3125 C-38.346875 57.74273438 -39.06875 57.17296875 -39.8125 56.5859375 C-46.53570615 50.57954377 -50.40798247 43.74291694 -51.06640625 34.69921875 C-51.39314796 26.34678109 -51.4753047 18.4444122 -46.625 11.3125 C-46.20089844 10.6215625 -45.77679687 9.930625 -45.33984375 9.21875 C-41.03822216 2.7962732 -35.40008268 -1.12048455 -28.3125 -4.0625 C-18.2557471 -5.76703439 -8.75239791 -5.46114678 0 0 Z " fill="#1E1F1F" transform="translate(746.625,478.6875)"/>
<path d="M0 0 C7.44801317 5.89882643 11.10299343 12.29621714 12.953125 21.546875 C12.953125 25.506875 12.953125 29.466875 12.953125 33.546875 C-2.886875 33.546875 -18.726875 33.546875 -35.046875 33.546875 C-31.98875807 43.10462989 -31.98875807 43.10462989 -25.046875 47.546875 C-18.69864412 49.24772176 -12.86433886 48.6920892 -7.046875 45.546875 C-6.36625 44.639375 -5.685625 43.731875 -4.984375 42.796875 C-4.0253125 41.683125 -4.0253125 41.683125 -3.046875 40.546875 C2.44635839 40.546875 6.1541798 41.78748151 10.953125 44.546875 C10.68246596 49.01274923 8.80039697 51.62211577 5.90234375 54.8359375 C-3.51125348 63.09877435 -14.95626728 63.33043383 -26.80371094 62.76904297 C-34.02295959 62.05403249 -39.70753816 57.77200212 -44.51171875 52.5703125 C-51.62378495 43.19613873 -53.01551654 33.06442094 -52.046875 21.546875 C-49.4036875 10.75500066 -44.2734012 3.63638229 -35.046875 -2.453125 C-24.55269577 -8.56039324 -9.78347179 -6.54799293 0 0 Z " fill="#1E1F20" transform="translate(970.046875,479.453125)"/>
<path d="M0 0 C5.82558878 4.17633534 9.44203899 10.01496494 11.56640625 16.83984375 C11.99349303 19.81083729 12.04186489 22.71674413 12.00390625 25.71484375 C12.00068359 26.50552246 11.99746094 27.29620117 11.99414062 28.11083984 C11.84901711 34.18225734 10.69542773 38.55962001 7.56640625 43.83984375 C7.08429688 43.41832031 6.6021875 42.99679687 6.10546875 42.5625 C5.47382812 42.01464844 4.8421875 41.46679688 4.19140625 40.90234375 C3.56492187 40.35707031 2.9384375 39.81179688 2.29296875 39.25 C0.61008291 37.77025751 0.61008291 37.77025751 -1.43359375 36.83984375 C-1.43359375 36.17984375 -1.43359375 35.51984375 -1.43359375 34.83984375 C-3.89457491 34.89972164 -6.34937787 34.98662849 -8.80859375 35.08984375 C-9.50726562 35.10402344 -10.2059375 35.11820312 -10.92578125 35.1328125 C-13.21077021 35.20020157 -13.21077021 35.20020157 -16.43359375 35.83984375 C-17.09359375 37.15984375 -17.75359375 38.47984375 -18.43359375 39.83984375 C-13.81359375 44.45984375 -9.19359375 49.07984375 -4.43359375 53.83984375 C-4.92859375 54.82984375 -4.92859375 54.82984375 -5.43359375 55.83984375 C-12.29269663 58.12621138 -23.35249904 58.38472229 -30.05859375 55.27734375 C-31.8046875 54.1484375 -31.8046875 54.1484375 -33.43359375 52.83984375 C-34.04332031 52.37707031 -34.65304687 51.91429687 -35.28125 51.4375 C-41.70741731 45.85724006 -45.16058991 38.25941952 -45.87890625 29.82421875 C-46.22962406 22.13998244 -45.56144049 15.49581807 -41.43359375 8.83984375 C-40.83546875 7.76734375 -40.23734375 6.69484375 -39.62109375 5.58984375 C-29.94338786 -6.57641509 -12.97748781 -7.3441176 0 0 Z " fill="#FBFCFD" transform="translate(1193.43359375,469.16015625)"/>
<path d="M0 0 C6.48183781 4.74832305 12.56904525 10.78631971 14 19 C14.60121803 28.01827044 14.94090566 36.05925876 10 44 C7.44475146 42.90489348 6.09163791 42.11782016 4.359375 39.890625 C0.64046731 36.91057314 -3.14041964 37.57297033 -7.75 37.75 C-8.63816406 37.76804687 -9.52632813 37.78609375 -10.44140625 37.8046875 C-12.62870848 37.85172626 -14.81379816 37.91742991 -17 38 C-12.22437305 43.58043199 -7.25527532 48.86757527 -2 54 C-3 56 -3 56 -5.171875 57.1015625 C-11.8211207 59.21389194 -19.49179012 59.01553963 -25.9375 56.3125 C-34.20349562 51.93815925 -38.33558565 46.60600242 -42 38 C-44.30299056 27.29458329 -43.76658024 17.50815206 -38 8 C-28.82075419 -2.83709438 -12.87124237 -7.98017027 0 0 Z " fill="#3357DC" transform="translate(418,469)"/>
<path d="M0 0 C5.11268833 3.02113402 7.82895666 7.57931331 10 13 C10.63647088 17.03104133 10.58658859 20.96247031 10.48828125 25.03515625 C10.48120651 26.15442001 10.47413177 27.27368378 10.46684265 28.42686462 C10.43903866 31.97278013 10.37632307 35.51706842 10.3125 39.0625 C10.2873992 41.47849269 10.26458917 43.89451033 10.24414062 46.31054688 C10.1892573 52.20765033 10.10307924 58.10355007 10 64 C4.39 64 -1.22 64 -7 64 C-7.00410889 62.66300049 -7.00821777 61.32600098 -7.01245117 59.94848633 C-7.03424542 54.98146164 -7.08853883 50.01522877 -7.15258789 45.04858398 C-7.17576522 42.90022376 -7.19016297 40.75174996 -7.19555664 38.60327148 C-7.20484791 35.51213827 -7.24584351 32.42279088 -7.29296875 29.33203125 C-7.2890361 28.37351761 -7.28510345 27.41500397 -7.28105164 26.42744446 C-7.38254685 21.77430125 -7.4686166 19.67724704 -10.41918945 15.91674805 C-14.54587943 12.85188729 -17.91953423 12.31064312 -23 13 C-27.05914612 15.10474243 -29.30537575 16.77374186 -31 21 C-31.32202416 23.13633955 -31.32202416 23.13633955 -31.31884766 25.40136719 C-31.33871735 26.2619574 -31.35858704 27.12254761 -31.37905884 28.00921631 C-31.39638565 29.38910736 -31.39638565 29.38910736 -31.4140625 30.796875 C-31.43342865 31.74564514 -31.4527948 32.69441528 -31.4727478 33.67193604 C-31.53245659 36.69786633 -31.57889433 39.72383484 -31.625 42.75 C-31.66318777 44.80340187 -31.70223997 46.85678786 -31.7421875 48.91015625 C-31.83815108 53.93997496 -31.92221446 58.96986865 -32 64 C-37.61 64 -43.22 64 -49 64 C-49 42.55 -49 21.1 -49 -1 C-43.72 -1 -38.44 -1 -33 -1 C-32.67 1.31 -32.34 3.62 -32 6 C-31.319375 5.2575 -30.63875 4.515 -29.9375 3.75 C-21.18359565 -4.80883127 -10.89645231 -5.07324703 0 0 Z " fill="#1D1D1E" transform="translate(628,477)"/>
<path d="M0 0 C5.94 0 11.88 0 18 0 C22.12230635 10.66446006 26.18903233 21.34469407 30 32.125 C30.30236572 32.97094727 30.60473145 33.81689453 30.91625977 34.68847656 C31.19139404 35.47448242 31.46652832 36.26048828 31.75 37.0703125 C31.99234375 37.75883301 32.2346875 38.44735352 32.484375 39.15673828 C33 41 33 41 33 44 C33.66 44 34.32 44 35 44 C35.11165497 43.44933365 35.22330994 42.8986673 35.33834839 42.33131409 C36.48707692 36.89307215 37.98231957 31.70652592 39.8203125 26.46484375 C40.08383514 25.70071671 40.34735779 24.93658966 40.61886597 24.14930725 C41.44963638 21.74374715 42.28718191 19.34061338 43.125 16.9375 C43.69446312 15.29247435 44.26347754 13.6472933 44.83203125 12.00195312 C46.21535876 7.99917601 47.60785315 3.99976137 49 0 C54.94 0 60.88 0 67 0 C65.60993524 4.25196278 64.21312377 8.50151523 62.8125 12.75 C62.42513672 13.93722656 62.03777344 15.12445313 61.63867188 16.34765625 C59.40396545 23.10718146 56.96784063 29.70185366 54.17163086 36.24902344 C52.48256912 40.2149221 50.92610973 44.2286044 49.375 48.25 C48.94574219 49.35601563 48.94574219 49.35601563 48.5078125 50.484375 C46.63825202 55.31124024 44.81779699 60.15254136 43 65 C36.73 65 30.46 65 24 65 C23.02933594 62.17824219 22.05867187 59.35648438 21.05859375 56.44921875 C17.00540137 44.79469947 12.55098859 33.30475161 8.0625 21.8125 C6.89562977 18.81916143 5.72974031 15.82544997 4.56578064 12.83097839 C3.84980622 10.98953724 3.13206799 9.14878068 2.41236877 7.30879211 C2.09460983 6.49250839 1.77685089 5.67622467 1.44946289 4.83520508 C1.16857315 4.11609451 0.88768341 3.39698395 0.59828186 2.65608215 C0 1 0 1 0 0 Z " fill="#1E1F20" transform="translate(814,476)"/>
<path d="M0 0 C5.61 0 11.22 0 17 0 C17 6.27 17 12.54 17 19 C22.28 19 27.56 19 33 19 C33 23.62 33 28.24 33 33 C27.72 33 22.44 33 17 33 C17.0971647 37.32382916 17.20003208 41.64675033 17.31738281 45.9699707 C17.35555952 47.43928862 17.39043182 48.90869639 17.421875 50.37817383 C17.46777289 52.49593114 17.52572372 54.6130759 17.5859375 56.73046875 C17.63306885 58.63928833 17.63306885 58.63928833 17.68115234 60.58666992 C17.98465487 63.83572722 18.49771061 66.11855423 20 69 C23.85145043 70.92572521 28.80043252 70.04883218 33 70 C33 74.62 33 79.24 33 84 C29.35956737 85.21347754 25.97944814 85.2224972 22.1875 85.25 C21.48818359 85.270625 20.78886719 85.29125 20.06835938 85.3125 C13.91179901 85.35857342 10.11856478 83.6258753 5.3125 79.9375 C-1.56747588 71.19807117 -0.36167368 59.89333776 -0.1875 49.375 C-0.17242196 47.78256478 -0.15873909 46.1901157 -0.14648438 44.59765625 C-0.11373449 40.7314233 -0.06212661 36.86586791 0 33 C-3.3 33 -6.6 33 -10 33 C-10 28.38 -10 23.76 -10 19 C-6.7 19 -3.4 19 0 19 C0 12.73 0 6.46 0 0 Z " fill="#1F2020" transform="translate(656,457)"/>
<path d="M0 0 C6.27 0 12.54 0 19 0 C19 30.03 19 60.06 19 91 C12.73 91 6.46 91 0 91 C0 60.97 0 30.94 0 0 Z " fill="#3475EF" transform="translate(1099,450)"/>
<path d="M0 0 C5.94 0 11.88 0 18 0 C18 30.03 18 60.06 18 91 C12.06 91 6.12 91 0 91 C0 60.97 0 30.94 0 0 Z " fill="#FDFDFD" transform="translate(325,450)"/>
<path d="M0 0 C5.94 0 11.88 0 18 0 C18 30.03 18 60.06 18 91 C12.06 91 6.12 91 0 91 C0 60.97 0 30.94 0 0 Z " fill="#191A1B" transform="translate(545,450)"/>
<path d="M0 0 C0 5.61 0 11.22 0 17 C-1.85625 17.0825 -3.7125 17.165 -5.625 17.25 C-11.92510465 17.77686388 -15.57949467 19.24563186 -19.8125 24.0625 C-22.44684115 28.36063557 -22.21650287 32.72928703 -22.31640625 37.60546875 C-22.33718735 38.44467361 -22.35796844 39.28387848 -22.37937927 40.14851379 C-22.44474018 42.82809294 -22.50369714 45.50776969 -22.5625 48.1875 C-22.60569802 50.00456737 -22.64931273 51.82162488 -22.69335938 53.63867188 C-22.80119168 58.09234934 -22.90036495 62.54610139 -23 67 C-28.61 67 -34.22 67 -40 67 C-40 45.55 -40 24.1 -40 2 C-34.39 2 -28.78 2 -23 2 C-22.67 4.64 -22.34 7.28 -22 10 C-21.34 9.0925 -20.68 8.185 -20 7.25 C-14.43325777 0.65122129 -8.32948794 -0.520593 0 0 Z " fill="#1C1C1D" transform="translate(811,474)"/>
<path d="M0 0 C5.94 0 11.88 0 18 0 C18 21.45 18 42.9 18 65 C12.06 65 6.12 65 0 65 C0 43.55 0 22.1 0 0 Z " fill="#222324" transform="translate(889,476)"/>
<path d="M0 0 C2.69435767 2.30944943 4.20216823 4.00910541 5.625 7.25 C5.625 8.9 5.625 10.55 5.625 12.25 C-4.605 12.25 -14.835 12.25 -25.375 12.25 C-24.29985651 5.79913905 -23.07336715 3.44103173 -18.375 -0.75 C-12.32463158 -3.97686316 -5.91277706 -3.0658844 0 0 Z " fill="#EFEFEF" transform="translate(960.375,489.75)"/>
<path d="M0 0 C2.32830748 1.91403656 3.61415039 3.62521973 4.734375 6.42578125 C4.734375 8.07578125 4.734375 9.72578125 4.734375 11.42578125 C-5.495625 11.42578125 -15.725625 11.42578125 -26.265625 11.42578125 C-24.00666624 2.38994623 -24.00666624 2.38994623 -20.890625 -0.01171875 C-20.30539062 -0.48480469 -19.72015625 -0.95789063 -19.1171875 -1.4453125 C-12.63065776 -5.40017979 -5.9706371 -4.10770576 0 0 Z " fill="#EEEEEE" transform="translate(739.265625,490.57421875)"/>
<path d="M0 0 C2.87029869 1.79393668 4.49131638 2.98263276 6 6 C6.4128469 10.29360777 6.2493583 12.53567766 4.1875 16.375 C1.29532253 19.84561296 -0.35908253 19.92645209 -4.8125 20.4375 C-8.17751393 20.3815201 -9.96328551 19.72339109 -12.5 17.5 C-14.63233465 15.03558045 -15.43967681 13.19301065 -15.625 9.9375 C-14.9477484 5.67081492 -14.06379171 3.97368019 -11 1 C-7.54260443 -0.72869779 -3.78024432 -0.48966895 0 0 Z " fill="#252626" transform="translate(902,447)"/>
<path d="M0 0 C0.99 0.495 0.99 0.495 2 1 C0.71745222 1.92938245 -0.57680094 2.84260827 -1.875 3.75 C-2.59429687 4.26046875 -3.31359375 4.7709375 -4.0546875 5.296875 C-12.92484314 10.42603662 -20.45673001 11.57829862 -30.64794922 11.48583984 C-31.99267444 11.4879904 -33.33739783 11.49187505 -34.68211365 11.49734497 C-38.30376209 11.5069644 -41.92491075 11.49183298 -45.54649878 11.47143888 C-49.34692077 11.45376556 -53.14732971 11.45739482 -56.94778442 11.4581604 C-63.32106816 11.45629321 -69.69416027 11.43900121 -76.06738281 11.41162109 C-83.43273143 11.38009543 -90.79787106 11.36962801 -98.16328228 11.3710922 C-106.01932269 11.37244288 -113.87528276 11.3585715 -121.73129892 11.34019899 C-123.99116605 11.33593943 -126.25102019 11.33451711 -128.51089096 11.33372116 C-132.05850681 11.33171204 -135.60594735 11.31950069 -139.15350533 11.29938889 C-141.07538685 11.2907653 -142.99730434 11.29188143 -144.91920471 11.29327393 C-146.06299088 11.28474396 -147.20677704 11.27621399 -148.38522339 11.26742554 C-149.37883314 11.26407385 -150.37244289 11.26072216 -151.39616203 11.25726891 C-154.06511896 10.993566 -155.71384824 10.36315135 -158 9 C-149.91027535 7.95525371 -142.9446047 8.10768274 -135 10 C-135 9.34 -135 8.68 -135 8 C-127.75032602 7.9768334 -120.50066003 7.95906286 -113.25095654 7.94818783 C-109.8846576 7.94296846 -106.51838398 7.93588797 -103.15209961 7.92456055 C-99.28238245 7.91246101 -95.41270134 7.90676396 -91.54296875 7.90234375 C-90.33352097 7.89718246 -89.12407318 7.89202118 -87.87797546 7.88670349 C-86.19657219 7.88659019 -86.19657219 7.88659019 -84.48120117 7.88647461 C-82.99894295 7.88314369 -82.99894295 7.88314369 -81.48674011 7.87974548 C-79 8 -79 8 -76 9 C-74.043446 9.09447646 -72.08383255 9.13071717 -70.125 9.1328125 C-68.97515625 9.13410156 -67.8253125 9.13539063 -66.640625 9.13671875 C-65.43921875 9.13285156 -64.2378125 9.12898437 -63 9.125 C-61.19789063 9.13080078 -61.19789063 9.13080078 -59.359375 9.13671875 C-58.20953125 9.13542969 -57.0596875 9.13414062 -55.875 9.1328125 C-54.82054687 9.13168457 -53.76609375 9.13055664 -52.6796875 9.12939453 C-49.89775656 9.11597653 -49.89775656 9.11597653 -47 8 C-46.01 8.33 -45.02 8.66 -44 9 C-42.29367352 9.09267588 -40.58383413 9.12998202 -38.875 9.125 C-37.98554688 9.12757813 -37.09609375 9.13015625 -36.1796875 9.1328125 C-34.02208912 9.24301985 -34.02208912 9.24301985 -33 8 C-30.72854654 8.03300659 -28.45759874 8.10240005 -26.1875 8.1875 C-16.47106853 8.35953396 -7.76007538 6.03561419 0 0 Z " fill="#2016AA" transform="translate(476,585)"/>
<path d="M0 0 C0.66 0 1.32 0 2 0 C2 29.37 2 58.74 2 89 C7.28 89 12.56 89 18 89 C18 89.66 18 90.32 18 91 C12.06 91 6.12 91 0 91 C0 60.97 0 30.94 0 0 Z " fill="#3C3D3F" transform="translate(545,450)"/>
<path d="M0 0 C0.66 0 1.32 0 2 0 C2 20.79 2 41.58 2 63 C6.62 63 11.24 63 16 63 C16 51.12 16 39.24 16 27 C16.33 27 16.66 27 17 27 C17 39.54 17 52.08 17 65 C11.39 65 5.78 65 0 65 C0 43.55 0 22.1 0 0 Z " fill="#2F3031" transform="translate(771,476)"/>
<path d="M0 0 C0 -0.66 0 -1.32 0 -2 C10.89 -2 21.78 -2 33 -2 C32.67 -1.34 32.34 -0.68 32 0 C20.53759433 0.76325175 9.08308619 1.12662483 -2.40377808 1.17724609 C-3.79843206 1.1840682 -5.19307362 1.19430825 -6.587677 1.20800781 C-8.56880094 1.22594535 -10.55004585 1.22848146 -12.53125 1.23046875 C-13.68173828 1.23457764 -14.83222656 1.23868652 -16.01757812 1.24291992 C-18.90792815 1.0074993 -20.55931878 0.50750154 -23 -1 C-15.01097813 -2.3345093 -7.92190247 -1.50242978 0 0 Z " fill="#262ECB" transform="translate(341,595)"/>
<path d="M0 0 C0.80630859 -0.01224609 1.61261719 -0.02449219 2.44335938 -0.03710938 C3.21873047 -0.03904297 3.99410156 -0.04097656 4.79296875 -0.04296875 C5.84327271 -0.04913208 5.84327271 -0.04913208 6.91479492 -0.05541992 C8.8125 0.1875 8.8125 0.1875 11.8125 2.1875 C9.4604994 3.3635003 8.07515599 3.30834541 5.45458984 3.30102539 C4.10341568 3.30091209 4.10341568 3.30091209 2.72494507 3.30079651 C1.75094757 3.29563522 0.77695007 3.29047394 -0.2265625 3.28515625 C-1.22255463 3.2837413 -2.21854675 3.28232635 -3.24472046 3.28086853 C-6.43401053 3.27525936 -9.62323106 3.2627053 -12.8125 3.25 C-14.97135315 3.24498618 -17.13020741 3.24042307 -19.2890625 3.23632812 C-24.5885655 3.22528695 -29.88802778 3.20853988 -35.1875 3.1875 C-35.1875 2.8575 -35.1875 2.5275 -35.1875 2.1875 C-34.32584229 2.14991577 -34.32584229 2.14991577 -33.44677734 2.11157227 C-30.81850279 1.99480125 -28.19051605 1.87244581 -25.5625 1.75 C-24.65886719 1.71068359 -23.75523437 1.67136719 -22.82421875 1.63085938 C-19.20303474 1.45905137 -15.69037309 1.27312261 -12.11328125 0.6640625 C-8.06774432 0.00510989 -4.09190636 0.00331866 0 0 Z " fill="#2220BB" transform="translate(388.1875,592.8125)"/>
<path d="M0 0 C0.66 0.33 1.32 0.66 2 1 C1.2265625 1.46148437 0.453125 1.92296875 -0.34375 2.3984375 C-6.97604296 6.55182888 -11.65540365 10.33244187 -16.28125 16.703125 C-18.02000617 19.02673552 -19.90503262 20.99691715 -22 23 C-18.61180388 13.40011098 -11.59245464 6.20643182 -2.8046875 1.16796875 C-1.87914062 0.78253906 -0.95359375 0.39710938 0 0 Z " fill="#53B3FB" transform="translate(309,401)"/>
<path d="M0 0 C0 0.66 0 1.32 0 2 C-0.969375 2.474375 -1.93875 2.94875 -2.9375 3.4375 C-8.11028678 6.35249255 -11.96225427 10.71504535 -16 15 C-16.66 14.67 -17.32 14.34 -18 14 C-14.05023785 8.90688564 -6.9976633 0 0 0 Z " fill="#4B8FF4" transform="translate(1156,452)"/>
<path d="M0 0 C0 0.66 0 1.32 0 2 C-1.4317616 2.69937202 -2.87067032 3.38412718 -4.3125 4.0625 C-5.51326172 4.63677734 -5.51326172 4.63677734 -6.73828125 5.22265625 C-9 6 -9 6 -12 5 C-10.56705502 4.15885829 -9.12845595 3.32734313 -7.6875 2.5 C-6.88699219 2.0359375 -6.08648437 1.571875 -5.26171875 1.09375 C-3 0 -3 0 0 0 Z " fill="#3E3FC3" transform="translate(430,537)"/>
<path d="M0 0 C0.66 0 1.32 0 2 0 C0.70700306 2.88437779 -0.65941363 4.87219421 -3 7 C-3.66 6.67 -4.32 6.34 -5 6 C-3.38405168 3.95880212 -1.7143618 1.95927063 0 0 Z " fill="#2B2C2D" transform="translate(794,478)"/>
<path d="M0 0 C0 3 0 3 -1.875 5.1875 C-4 7 -4 7 -6 7 C-4.60667426 3.63279613 -3.0210714 2.0140476 0 0 Z " fill="#2E2F30" transform="translate(709,480)"/>
</svg>
